<?xml version="1.0" encoding="iso-8859-1"?>
<!-- Generator: Adobe Illustrator 19.0.0, SVG Export Plug-In . SVG Version: 6.00 Build 0)  -->
<svg version="1.1" id="Layer_1" xmlns="http://www.w3.org/2000/svg" xmlns:xlink="http://www.w3.org/1999/xlink" x="0px" y="0px"
	 viewBox="0 0 512 512" style="enable-background:new 0 0 512 512;" xml:space="preserve">
<rect x="82.301" y="32.176" style="fill:#80D0E1;" width="347.394" height="271.403"/>
<rect x="121.641" y="71.521" style="fill:#FFFFFF;" width="268.713" height="192.722"/>
<path style="fill:#FF7876;" d="M272.703,123.13l-16.704,16.704l-16.704-16.704c-11.884-11.884-31.153-11.884-43.037,0l0,0
	c-11.884,11.884-11.884,31.153,0,43.037c0.821,0.821,52.512,52.512,52.277,52.277c4.123,4.123,10.806,4.123,14.929,0
	c0.519-0.519,53.68-53.68,52.277-52.277c11.884-11.884,11.884-31.153,0-43.037l0,0C303.858,111.246,284.589,111.246,272.703,123.13z
	"/>
<path style="fill:#80D0E1;" d="M429.696,341.335H82.302l-70.502,53.198v85.291c19.074,0,465.712,0,488.397,0v-85.291
	L429.696,341.335z"/>
<circle style="fill:#FFDA79;" cx="345.537" cy="415.91" r="20.876"/>
<circle style="fill:#FF7876;" cx="415.705" cy="415.91" r="20.876"/>
<g>
	<path style="fill:#58595B;" d="M82.304,315.38h347.394c6.52,0,11.802-5.284,11.802-11.802V32.176
		c0-6.518-5.283-11.802-11.802-11.802H82.304c-6.52,0-11.802,5.284-11.802,11.802v271.402
		C70.502,310.096,75.784,315.38,82.304,315.38z M94.106,43.978h323.789v247.797H94.106V43.978z"/>
	<path style="fill:#58595B;" d="M390.355,59.714H121.643c-6.518,0-11.802,5.284-11.802,11.802v192.721
		c0,6.518,5.284,11.802,11.802,11.802h268.714c6.52,0,11.802-5.284,11.802-11.802V71.517
		C402.158,64.999,396.875,59.714,390.355,59.714z M378.553,252.435H133.445V83.319h245.11v169.116H378.553z"/>
	<path style="fill:#58595B;" d="M507.307,385.112l-70.502-53.198c-2.049-1.545-4.545-2.381-7.11-2.381H82.304
		c-2.565,0-5.061,0.836-7.11,2.381L4.693,385.112C1.739,387.342,0,390.831,0,394.533v85.291c0,6.518,5.283,11.802,11.802,11.802
		h488.396c6.52,0,11.802-5.284,11.802-11.802v-85.291C512,390.831,510.263,387.342,507.307,385.112z M488.396,468.022H23.604
		v-67.609l62.652-47.276h339.485l62.652,47.276v67.609H488.396z"/>
	<path style="fill:#58595B;" d="M273.496,404.1H66.997c-6.52,0-11.802,5.284-11.802,11.802c0,6.518,5.283,11.802,11.802,11.802
		h206.499c6.52,0,11.802-5.284,11.802-11.802C285.299,409.384,280.014,404.1,273.496,404.1z"/>
	<path style="fill:#58595B;" d="M345.531,383.224c-18.02,0-32.68,14.658-32.68,32.678c0,18.018,14.66,32.678,32.68,32.678
		c18.018,0,32.678-14.658,32.678-32.678C378.209,397.882,363.549,383.224,345.531,383.224z M345.531,424.974
		c-5.004,0-9.075-4.069-9.075-9.074s4.071-9.074,9.075-9.074c5.003,0,9.074,4.071,9.074,9.074S350.533,424.974,345.531,424.974z"/>
	<path style="fill:#58595B;" d="M383.032,415.902c0,18.018,14.658,32.678,32.678,32.678s32.678-14.658,32.678-32.678
		c0-18.02-14.658-32.678-32.678-32.678S383.032,397.882,383.032,415.902z M424.782,415.902c0,5.003-4.071,9.074-9.074,9.074
		s-9.074-4.069-9.074-9.074s4.071-9.074,9.074-9.074C420.712,406.828,424.782,410.899,424.782,415.902z"/>
</g>
<g>
</g>
<g>
</g>
<g>
</g>
<g>
</g>
<g>
</g>
<g>
</g>
<g>
</g>
<g>
</g>
<g>
</g>
<g>
</g>
<g>
</g>
<g>
</g>
<g>
</g>
<g>
</g>
<g>
</g>
</svg>
